<svg xmlns="http://www.w3.org/2000/svg" viewBox="0 0 416.47 416.07"><defs><style>.cls-1{fill:#3000ff;}</style></defs><g id="Ebene_2" data-name="Ebene 2"><g id="Ebene_1-2" data-name="Ebene 1"><path class="cls-1" d="M293.4,322.54a139.83,139.83,0,0,0,36.27-111.11A171.12,171.12,0,0,0,415.92,48.71a171.37,171.37,0,0,0-8.1-40,171.16,171.16,0,0,0-203,78.53,139.95,139.95,0,0,0-111.45,37.3c-1,1-2,2-3,3-.83.83-1.65,1.67-2.45,2.52a141.39,141.39,0,0,0-13.94,17.14,139.41,139.41,0,0,0-17.3,34.52,141,141,0,0,0-6.92,33.55A109.91,109.91,0,0,1,80.16,204a111.37,111.37,0,0,1,66.42,6.59h0a111.15,111.15,0,0,1,34.73,23.48l.16.16c1.19,1.19,2.34,2.39,3.46,3.62a111,111,0,0,1,14.81,129.52,140.93,140.93,0,0,0,33-6.21,139.63,139.63,0,0,0,54.46-32.28c.79-.75,1.56-1.5,2.33-2.27,1.34-1.34,2.64-2.69,3.91-4.07M380.33,36.71a137,137,0,0,1-59.12,140,135.55,135.55,0,0,1-24.76,12.87,137.27,137.27,0,0,1-76.2,7.16,137.42,137.42,0,0,1,7.07-76,135.51,135.51,0,0,1,13-25,137,137,0,0,1,140-59.07M116.08,174.58a140.09,140.09,0,0,0-25.33-.19,112,112,0,0,1,10.14-15.83c.49-.64,1-1.28,1.49-1.91a114.54,114.54,0,0,1,18.25-18.12h0q3.81-3,7.79-5.62a112.05,112.05,0,0,1,64.09-18.4,172.06,172.06,0,0,0-6.76,87.21,138.72,138.72,0,0,0-18.84-11.93h0a138.82,138.82,0,0,0-44.28-14.4c-2.18-.32-4.36-.58-6.55-.8ZM259.43,316.05a110.1,110.1,0,0,1-18.91,11.86,139.38,139.38,0,0,0,.15-28.59h0c-.21-2.17-.47-4.32-.78-6.47h0A138.56,138.56,0,0,0,226.78,251h0a138.55,138.55,0,0,0-12.4-20.28,172.09,172.09,0,0,0,88.47-7,112.11,112.11,0,0,1-18.3,65.22q-2.52,3.84-5.38,7.5A114.07,114.07,0,0,1,261,314.85l-1.53,1.2"/><path class="cls-1" d="M170.92,266.28,42,395.23a14,14,0,0,1-19.61.12l-.67-.67-.1-.1A13.9,13.9,0,0,1,21.7,375l129-129a13.89,13.89,0,0,1,19.61-.12l.1.11.67.67a14,14,0,0,1-.13,19.61"/><path class="cls-1" d="M95.94,250.07,24.47,321.55C14.92,331.09-1.45,323.31.1,309.9c0-.13,0-.26,0-.39a14,14,0,0,1,4.07-8.24l71.45-71.45a14,14,0,0,1,8.24-4.07l.39-.05c13.41-1.55,21.19,14.82,11.64,24.37"/><path class="cls-1" d="M186.22,343.29l-68.53,68.53a14.32,14.32,0,0,1-8,4l-.4,0c-13.51,2-21.71-14.46-12.06-24.11l69-69c9.65-9.65,26.08-1.45,24.11,12.06,0,.13,0,.26-.06.4a14.24,14.24,0,0,1-4,8"/></g></g></svg>