<svg xmlns="http://www.w3.org/2000/svg" viewBox="0 0 434.15 433.74"><defs><style>.cls-1{fill:#2200b8;}.cls-2{fill:#3000ff;}</style></defs><g id="Ebene_2" data-name="Ebene 2"><g id="Ebene_1-2" data-name="Ebene 1"><path class="cls-1" d="M433.6,66.39a171.78,171.78,0,0,0-8.1-40l-.54-.17c-.06-.18-.11-.36-.17-.54l-.54-.17c-.06-.18-.11-.36-.17-.54l-.54-.17c-.06-.18-.11-.36-.17-.54l-.53-.16c-.06-.18-.11-.36-.17-.54l-.54-.17c-.06-.18-.11-.36-.17-.54l-.54-.17c-.06-.18-.11-.36-.17-.54l-.54-.17c0-.18-.1-.36-.16-.53l-.54-.17c-.06-.18-.11-.36-.17-.54l-.54-.17c-.06-.18-.11-.36-.17-.54l-.54-.17c0-.18-.11-.36-.17-.54l-.53-.16c-.06-.18-.11-.36-.17-.54l-.54-.17c-.06-.18-.11-.36-.17-.54l-.54-.17c-.06-.18-.11-.36-.17-.54l-.53-.17c-.06-.17-.11-.36-.17-.53l-.54-.17c-.06-.18-.11-.36-.17-.54l-.54-.17c-.06-.18-.11-.36-.17-.54l-.54-.17c-.05-.18-.11-.36-.17-.54l-.53-.17c-.06-.17-.11-.35-.17-.53l-.54-.17c-.06-.18-.11-.36-.17-.54l-.54-.17c-.06-.18-.11-.36-.17-.54l-.53-.17c-.06-.17-.11-.36-.17-.53l-.54-.17c-.06-.18-.11-.36-.17-.54l-.54-.17c-.06-.18-.11-.36-.17-.54l-.54-.17c-.05-.18-.11-.36-.16-.54L408,9.2c-.06-.18-.11-.36-.17-.54a171.16,171.16,0,0,0-203,78.53,139.83,139.83,0,0,0-111.45,37.3q-1.55,1.45-3,3c-.83.84-1.65,1.68-2.45,2.53a139.79,139.79,0,0,0-38.16,85.21l.82-.43c0,.38-.08.76-.11,1.14l.81-.43c0,.38-.08.76-.11,1.14l.82-.43c0,.38-.08.75-.11,1.13l.82-.42c0,.37-.08.75-.11,1.13l.81-.43c0,.38-.07.76-.11,1.14l.82-.43c0,.38-.08.76-.11,1.13l.82-.42c0,.38-.08.75-.11,1.13l.82-.43-.12,1.14.82-.43c0,.38-.08.76-.11,1.14l.82-.43c0,.38-.08.75-.11,1.13.27-.15.55-.28.82-.42,0,.37-.08.75-.11,1.13l.81-.43c0,.38-.08.76-.11,1.14l.82-.43c0,.38-.08.76-.11,1.13l.82-.42c0,.38-.08.75-.11,1.13l.82-.43c0,.38-.08.76-.11,1.14l.81-.43c0,.38-.08.76-.11,1.14l.82-.43c0,.38-.08.75-.11,1.13l.82-.42c0,.37-.08.75-.11,1.13l.81-.43c0,.38-.08.76-.11,1.14l.82-.43c0,.38-.08.76-.11,1.13l.82-.42c0,.37-.08.75-.11,1.13l.81-.43c0,.38-.07.76-.1,1.14.26-.15.54-.28.81-.43,0,.38-.08.76-.11,1.14l.82-.43c0,.38-.08.75-.11,1.13.27-.15.55-.28.82-.42,0,.37-.08.75-.11,1.13a110.85,110.85,0,0,1,11.35-5.39,14.28,14.28,0,0,0-3.08,2.35L4.22,301.27a14,14,0,0,0-4.07,8.24c0,.13,0,.26,0,.39a13.81,13.81,0,0,0,4.3,11.89c.23.25.47.48.71.71s.46.48.71.71.46.48.7.7.47.48.71.71.46.48.71.71.46.48.7.71.47.48.71.7.47.48.71.71.46.48.71.71.46.48.7.7.47.48.71.71.46.48.71.71.46.48.7.7.47.49.71.71.47.48.71.71.46.48.7.71.47.48.71.7.47.48.71.71.46.48.71.71.46.48.7.71.47.47.71.7.46.48.71.71.46.48.71.71.46.48.7.7a14.36,14.36,0,0,0,20.78.46l71.47-71.47a14.36,14.36,0,0,0-.46-20.78c-.22-.24-.46-.48-.7-.7s-.47-.48-.71-.71-.46-.48-.71-.71-.46-.48-.7-.71-.47-.48-.71-.7-.47-.48-.71-.71-.46-.48-.71-.71-.46-.48-.7-.7-.47-.48-.71-.71-.46-.48-.71-.71-.46-.48-.7-.71-.47-.47-.71-.7-.47-.48-.71-.71-.46-.48-.71-.71-.46-.48-.7-.7-.47-.48-.71-.71-.46-.48-.71-.71-.46-.48-.7-.71-.47-.47-.71-.7-.46-.48-.71-.71-.46-.48-.71-.71-.46-.48-.7-.7-.47-.48-.71-.71-.46-.48-.71-.71a13.81,13.81,0,0,0-11.89-4.3l-.39.05c-.39.05-.77.11-1.15.19a109.81,109.81,0,0,1,15.07-4.28,111.37,111.37,0,0,1,66.42,6.6h0a110.3,110.3,0,0,1,25.48,15.24,110.2,110.2,0,0,1,16.52,28.41,111.34,111.34,0,0,1,5,65.74,110.15,110.15,0,0,1-3.19,11.18,13.66,13.66,0,0,0-4.34-8.64c-.23-.25-.47-.48-.71-.71s-.46-.48-.71-.71-.46-.48-.7-.7-.47-.48-.71-.71-.46-.48-.71-.71-.46-.48-.71-.7-.46-.48-.7-.71-.47-.48-.71-.71-.46-.48-.71-.71-.46-.48-.7-.7-.47-.48-.71-.71-.46-.48-.71-.71-.46-.48-.71-.7-.46-.48-.7-.71l-.71-.71c-.23-.24-.46-.48-.71-.7s-.46-.49-.7-.71-.47-.48-.71-.71-.46-.48-.71-.71-.46-.48-.71-.7-.46-.48-.7-.71l-.71-.71c-.23-.24-.46-.48-.71-.71s-.46-.48-.7-.7a14.2,14.2,0,0,0-20.56-.43l-69,69a14.2,14.2,0,0,0,.43,20.56c.22.24.46.47.7.7s.47.48.71.71l.71.71c.23.24.46.48.71.7s.46.48.7.71.47.48.71.71.46.48.71.71.46.47.7.7.47.48.71.71l.71.71c.23.24.46.48.71.7s.46.48.7.71.47.48.71.71.46.48.71.71.46.48.7.7.47.48.71.71.46.48.71.71a9.39,9.39,0,0,0,.71.7c.22.25.46.48.7.71l.71.71c.23.24.46.48.71.71s.46.47.7.7.47.48.71.71.46.48.71.71a13.78,13.78,0,0,0,12.33,4.26l.4-.06a14.34,14.34,0,0,0,8-4l66.89-66.89c-.8,1.6-1.63,3.19-2.52,4.75l1.14-.09c-.15.27-.28.54-.43.8l1.14-.09c-.15.26-.29.53-.44.8l1.14-.09-.43.8,1.14-.1c-.14.27-.28.54-.43.8l1.14-.09c-.15.27-.28.54-.43.8l1.14-.09c-.15.26-.29.53-.44.8l1.14-.1c-.14.27-.28.54-.43.8l1.14-.09c-.15.27-.28.54-.43.8l1.14-.09c-.15.26-.29.53-.44.8l1.15-.09c-.15.26-.29.53-.44.8l1.14-.1c-.15.27-.28.54-.43.8l1.14-.09c-.15.26-.29.54-.43.8l1.14-.09c-.15.26-.29.53-.44.8l1.14-.1c-.14.27-.28.54-.43.8l1.14-.09c-.15.27-.28.54-.43.8l1.14-.09c-.15.26-.29.53-.44.8.38,0,.76-.07,1.15-.09-.15.26-.29.53-.44.8l1.14-.1c-.15.27-.28.54-.43.8l1.14-.09c-.15.27-.28.54-.43.8l1.14-.09c-.15.26-.29.53-.44.8l1.14-.1c-.14.27-.28.54-.43.8l1.14-.09c-.15.27-.28.54-.43.8l1.14-.09c-.15.26-.29.53-.44.8l1.14-.09-.43.8,1.14-.1c-.15.27-.28.54-.43.8a140.43,140.43,0,0,0,33-6.21,139.8,139.8,0,0,0,54.47-32.27c.78-.75,1.56-1.5,2.33-2.28,1.33-1.33,2.63-2.69,3.91-4.06A139.91,139.91,0,0,0,347.35,229.1,171.07,171.07,0,0,0,433.6,66.39m-176,244.13h0a138.54,138.54,0,0,0-13.1-41.89h0a137.69,137.69,0,0,0-12.4-20.28,174.32,174.32,0,0,0,18.19,2.35,172.12,172.12,0,0,0,50.93-3.77,111.58,111.58,0,0,1-16.62,42q-2.52,3.84-5.38,7.5A114.07,114.07,0,0,1,261,314.85l-1.53,1.2-1.1.83c-.2-2.13-.46-4.25-.76-6.36m85.16-151.33a137.52,137.52,0,0,1-21.52,17.57,135.55,135.55,0,0,1-24.76,12.87,137.16,137.16,0,0,1-60.57,9.21A137.44,137.44,0,0,1,245,138.47a135.43,135.43,0,0,1,13-25A136.89,136.89,0,0,1,382.38,52.34a136.43,136.43,0,0,1-39.65,106.85M120.06,174.33a115,115,0,0,1,18.24-18.12h0q3.8-3,7.78-5.63A111.57,111.57,0,0,1,187,134.12a172.14,172.14,0,0,0-3.49,50.09,169.9,169.9,0,0,0,2.26,17.52,138.36,138.36,0,0,0-18.84-11.93h0a138.82,138.82,0,0,0-44.28-14.4c-1-.15-2-.29-3.08-.41l.51-.65"/><path class="cls-1" d="M188.72,264.35l-.66-.68-.1-.1-.06-.05c-.18-.19-.36-.37-.55-.55l-.1-.1-.06-.06c-.18-.18-.36-.37-.55-.55a.94.94,0,0,0-.1-.1l0-.05-.55-.56-.1-.1-.06-.05-.55-.56-.1-.1-.06-.05-.55-.55-.1-.1,0-.05-.56-.56-.1-.1-.05-.05-.55-.56a.47.47,0,0,1-.1-.1l-.06-.05-.55-.55-.1-.11-.06-.05-.55-.55-.1-.1-.05,0-.55-.56-.1-.1-.06-.05-.55-.56a.94.94,0,0,1-.1-.1l-.06,0-.55-.55-.1-.1-.06-.05-.54-.56-.11-.1,0,0-.55-.56-.1-.1-.06,0-.55-.55-.1-.1-.06-.06c-.18-.18-.36-.37-.55-.55a.94.94,0,0,0-.1-.1l0,0-.55-.56-.1-.1-.06-.05-.55-.56-.1-.1-.06-.05c-.18-.18-.36-.37-.55-.55a.47.47,0,0,0-.1-.1l-.06,0-.54-.56-.11-.1s0,0-.05-.05l-.55-.56a.47.47,0,0,1-.1-.1l-.06-.05-.55-.55-.1-.1-.06-.05c-.18-.19-.36-.38-.55-.56l-.1-.1s0,0-.05-.05l-.55-.56-.1-.1-.06,0-.55-.56a.94.94,0,0,1-.1-.1,13.89,13.89,0,0,0-19.61.12L21.7,375a13.9,13.9,0,0,0-.11,19.61l.1.1c.18.19.37.37.56.55l.05.06.1.1.55.55L23,396a.94.94,0,0,1,.1.1l.56.55.05.06.1.1.56.55.05.05.1.1.55.55.05.06.11.1.55.55,0,.06.1.1.56.55.05,0,.1.1c.18.19.37.37.56.55l.05.06.1.1.55.55L28,401l.1.1.56.55.05.06.1.1.56.55.05.05.1.1L30,403l.06.06.1.1.55.55.05.06.1.1.56.55,0,.05.1.1c.18.19.37.37.56.55l.05.06.1.1.55.55,0,.06.1.1.56.55,0,.05.1.11.56.54,0,.06.1.1L35,408,35,408l.09.1.56.55,0,.06.1.1.56.55,0,.05a.94.94,0,0,0,.1.1c.18.19.37.37.55.55l.06.06.1.1.55.55.05.06.1.1.56.55.05.05.1.11.56.54.05.06.1.1L40,413a14,14,0,0,0,19.61-.12l129-129a13.94,13.94,0,0,0,.12-19.61"/><path class="cls-2" d="M293.4,322.54a139.9,139.9,0,0,0,36.27-111.11A171.33,171.33,0,0,0,407.82,8.66a171.16,171.16,0,0,0-203,78.53,139.83,139.83,0,0,0-111.45,37.3c-1,1-2,2-3,3-.83.83-1.65,1.67-2.45,2.52a141.39,141.39,0,0,0-13.94,17.14,139.24,139.24,0,0,0-17.3,34.52,141,141,0,0,0-6.92,33.55A109.91,109.91,0,0,1,80.16,204a111.37,111.37,0,0,1,66.42,6.59h0a111.15,111.15,0,0,1,34.73,23.48l.16.16q1.78,1.78,3.46,3.61a111,111,0,0,1,14.81,129.53,140.93,140.93,0,0,0,33-6.21,140,140,0,0,0,54.46-32.28c.79-.75,1.56-1.5,2.33-2.27,1.34-1.34,2.64-2.69,3.91-4.07M380.33,36.71a137,137,0,0,1-59.12,140,135.55,135.55,0,0,1-24.76,12.87,137.27,137.27,0,0,1-76.2,7.16,137.42,137.42,0,0,1,7.07-76,135.51,135.51,0,0,1,13-25,137,137,0,0,1,140-59.07M116.08,174.58a140.09,140.09,0,0,0-25.33-.19,111.38,111.38,0,0,1,10.14-15.83c.49-.64,1-1.28,1.49-1.91a114.54,114.54,0,0,1,18.25-18.12h0q3.81-3,7.79-5.62a112.05,112.05,0,0,1,64.09-18.4,172.06,172.06,0,0,0-6.76,87.21,137.75,137.75,0,0,0-18.84-11.93h0a138.82,138.82,0,0,0-44.28-14.4c-2.18-.32-4.36-.58-6.55-.8ZM259.43,316.05a110.1,110.1,0,0,1-18.91,11.86,139.38,139.38,0,0,0,.15-28.59h0q-.31-3.26-.78-6.48h0A138.56,138.56,0,0,0,226.78,251h0a138.55,138.55,0,0,0-12.4-20.28,172,172,0,0,0,88.47-7,112.12,112.12,0,0,1-18.3,65.23q-2.52,3.84-5.38,7.5A114.07,114.07,0,0,1,261,314.85l-1.53,1.2"/><path class="cls-2" d="M170.92,266.28,42,395.23a14,14,0,0,1-19.61.12l-.67-.67-.1-.1A13.9,13.9,0,0,1,21.7,375l129-129a13.89,13.89,0,0,1,19.61-.12l.1.11.67.67a14,14,0,0,1-.13,19.61"/><path class="cls-2" d="M95.94,250.07,24.47,321.55C14.92,331.09-1.45,323.31.1,309.9c0-.13,0-.26,0-.39a14,14,0,0,1,4.07-8.24l71.45-71.45a14,14,0,0,1,8.24-4.07l.39-.05c13.41-1.55,21.19,14.82,11.64,24.37"/><path class="cls-2" d="M186.22,343.29l-68.53,68.53a14.24,14.24,0,0,1-8,4l-.4.06c-13.51,2-21.71-14.46-12.06-24.11l69-69c9.65-9.65,26.08-1.45,24.11,12.06,0,.13,0,.26-.06.4a14.24,14.24,0,0,1-4,8"/></g></g></svg>