<svg xmlns="http://www.w3.org/2000/svg" viewBox="0 0 564.12 640.56"><defs><style>.cls-1{fill:#2200b8;}.cls-2{fill:#3000ff;}</style></defs><g id="Ebene_2" data-name="Ebene 2"><g id="Ebene_1-2" data-name="Ebene 1"><path class="cls-1" d="M564.12,84.89q0-9.47-.75-18.91a232.26,232.26,0,0,0-11-54.25A231.83,231.83,0,0,0,277.45,118.11a189.59,189.59,0,0,0-151,50.51c-1.39,1.32-2.77,2.65-4.12,4-1.13,1.13-2.24,2.26-3.33,3.41a191,191,0,0,0-18.88,23.22,189.5,189.5,0,0,0-32.8,92.21l.09-.05c0,.31-.07.62-.09.93l.09,0c0,.31-.07.62-.09.93l.09-.05c0,.31-.07.62-.09.93l.09,0c0,.31-.07.62-.09.93l.09-.05c0,.31-.07.62-.09.93l.09,0c0,.31-.07.62-.09.93l.09,0c0,.31-.07.62-.09.93l.09-.05c0,.32-.07.63-.09.94l.09-.05c0,.31-.07.62-.09.93l.09-.05c0,.32-.07.63-.09.94l.09-.05c0,.31-.07.62-.09.93l.09-.05c0,.32-.07.63-.09.94l.09,0c0,.31-.07.62-.09.93l.09-.05c0,.32-.07.63-.09.94l.09-.05c0,.31-.07.62-.09.93l.09-.05c0,.32-.07.63-.09.94l.09-.05c0,.31-.07.62-.09.93l.09-.05c0,.32-.07.63-.09.94l.09,0c0,.31-.07.62-.09.93l.09,0c0,.32-.07.63-.09.94l.09-.05c0,.31-.07.62-.09.93l.09-.05c0,.32-.07.63-.09.94l.09-.05c0,.31-.07.62-.09.93l.09-.05c0,.32-.07.63-.09.94l.09,0c0,.31-.07.62-.09.93l.09,0c0,.32-.07.63-.09.94l.09-.05c0,.31-.07.62-.09.93l.09-.05c0,.32-.07.63-.09.94l.09-.05c0,.31-.07.62-.09.93l.09-.05c0,.32-.07.63-.09.94l.09,0c0,.31-.07.62-.09.93l.09,0c0,.32-.07.63-.09.94l.09-.05c0,.31-.07.62-.09.93l.09-.05c0,.32-.07.63-.09.94l.09-.05c0,.31-.07.62-.09.93l.09-.05c0,.32-.07.63-.09.94l.09-.05c0,.31-.07.62-.09.93l.09,0c0,.32-.07.63-.09.94l.09-.05c0,.31-.07.62-.09.93l.09-.05c0,.32-.07.63-.09.94l.09-.05c0,.31-.07.62-.09.93l.09-.05c0,.32-.07.63-.09.94l.09-.05c0,.31-.07.62-.09.93l.09,0c0,.32-.07.63-.09.94l.09-.05c0,.31-.07.62-.09.93l.09-.05c0,.32-.07.63-.09.94l.09-.05c0,.31-.07.62-.09.93l.09-.05c0,.32-.07.63-.09.94l.09-.05c0,.31-.07.62-.09.93l.09-.05c0,.32-.07.63-.09.94l.09-.05c0,.31-.07.62-.09.93l.09-.05c0,.32-.07.63-.09.94l.09-.05c0,.31-.07.62-.09.93l.09-.05c0,.32-.07.63-.09.94l.09-.05c0,.31-.07.62-.09.93l.09-.05c0,.32-.07.63-.09.94l.09,0c0,.31-.07.62-.09.93l.09-.05c0,.32-.07.63-.09.94l.09-.05c0,.31-.07.62-.09.93l.09-.05c0,.32-.07.63-.09.94l.09-.05c0,.31-.07.62-.09.93l.09-.05c0,.32-.07.63-.09.94l.09,0v.07L5.72,408.07A19,19,0,0,0,.2,419.23l-.06.53A19.51,19.51,0,0,0,0,422.27c0,.3,0,.59,0,.88s0,.59,0,.89,0,.59,0,.88,0,.59,0,.89,0,.59,0,.88,0,.59,0,.89,0,.59,0,.88,0,.59,0,.89,0,.59,0,.88,0,.59,0,.89,0,.59,0,.88,0,.59,0,.89,0,.59,0,.88,0,.59,0,.89,0,.59,0,.88,0,.59,0,.89,0,.59,0,.88,0,.59,0,.89,0,.59,0,.88,0,.59,0,.89,0,.59,0,.88,0,.59,0,.89,0,.59,0,.88,0,.59,0,.89,0,.59,0,.88,0,.59,0,.89,0,.59,0,.88,0,.59,0,.89,0,.59,0,.88,0,.59,0,.89,0,.59,0,.88,0,.59,0,.89,0,.59,0,.88,0,.59,0,.89,0,.59,0,.88,0,.59,0,.89,0,.59,0,.88,0,.59,0,.89,0,.59,0,.88,0,.59,0,.89,0,.59,0,.88,0,.59,0,.89,0,.59,0,.88,0,.59,0,.89,0,.59,0,.88,0,.59,0,.89,0,.59,0,.88,0,.59,0,.89,0,.59,0,.88,0,.59,0,.89,0,.59,0,.88,0,.59,0,.89,0,.59,0,.88,0,.59,0,.89,0,.59,0,.88,0,.59,0,.89,0,.59,0,.88,0,.59,0,.89,0,.59,0,.88,0,.59,0,.89,0,.59,0,.88,0,.59,0,.89,0,.59,0,.88,0,.59,0,.89,0,.59,0,.88,0,.59,0,.89,0,.59,0,.88,0,.59,0,.89,0,.59,0,.88,0,.59,0,.89,0,.59,0,.88,0,.59,0,.89,0,.59,0,.88,0,.59,0,.89,0,.59,0,.88,0,.59,0,.89,0,.59,0,.88,0,.59,0,.89,0,.59,0,.88,0,.59,0,.89,0,.59,0,.88,0,.59,0,.89,0,.59,0,.88,0,.59,0,.89,0,.59,0,.88,0,.59,0,.89c-.51,13.49,12.49,22.25,24.17,19.3a19.28,19.28,0,0,0-.33,4c0,.3,0,.59,0,.89s0,.59,0,.88,0,.59,0,.89,0,.59,0,.88,0,.59,0,.89,0,.59,0,.88,0,.59,0,.89,0,.59,0,.88,0,.59,0,.89,0,.59,0,.88,0,.59,0,.89,0,.59,0,.88,0,.59,0,.89,0,.59,0,.88,0,.59,0,.89,0,.59,0,.88,0,.59,0,.89,0,.59,0,.88,0,.59,0,.89,0,.59,0,.88,0,.59,0,.89,0,.59,0,.88,0,.59,0,.89,0,.59,0,.88,0,.59,0,.89,0,.59,0,.88,0,.59,0,.89,0,.59,0,.88,0,.59,0,.89,0,.59,0,.88,0,.59,0,.89,0,.59,0,.88,0,.59,0,.89,0,.59,0,.88,0,.59,0,.89,0,.59,0,.88,0,.59,0,.89,0,.59,0,.88,0,.59,0,.89,0,.59,0,.88,0,.59,0,.89,0,.59,0,.88,0,.59,0,.89,0,.59,0,.88,0,.59,0,.89,0,.59,0,.88,0,.59,0,.89,0,.59,0,.88,0,.59,0,.89,0,.59,0,.88,0,.59,0,.89,0,.59,0,.88,0,.59,0,.89,0,.59,0,.88,0,.59,0,.89,0,.59,0,.88,0,.59,0,.89,0,.59,0,.88,0,.59,0,.89,0,.59,0,.88,0,.59,0,.89,0,.59,0,.88,0,.59,0,.89,0,.59,0,.88,0,.59,0,.89,0,.59,0,.88,0,.59,0,.89,0,.59,0,.88,0,.59,0,.89,0,.59,0,.88,0,.59,0,.89,0,.59,0,.88,0,.59,0,.89,0,.59,0,.88,0,.59,0,.89,0,.59,0,.88,0,.59,0,.89,0,.59,0,.88,0,.59,0,.89,0,.59,0,.88,0,.59,0,.89,0,.59,0,.88,0,.59,0,.89,0,.59,0,.88,0,.59,0,.89,0,.59,0,.88a18.5,18.5,0,0,0,5.39,13.66l.13.14.92.9a18.89,18.89,0,0,0,26.56-.16L126,543.2c0,.52,0,1,0,1.55,0,.3,0,.59,0,.88s0,.6,0,.89,0,.59,0,.88,0,.6,0,.89,0,.59,0,.88,0,.6,0,.89,0,.59,0,.88,0,.6,0,.89,0,.59,0,.88,0,.6,0,.89,0,.59,0,.88,0,.6,0,.89,0,.59,0,.88,0,.6,0,.89,0,.59,0,.88,0,.6,0,.89,0,.59,0,.88,0,.6,0,.89,0,.59,0,.88,0,.6,0,.89,0,.59,0,.88,0,.59,0,.89,0,.59,0,.88,0,.59,0,.89,0,.59,0,.88,0,.59,0,.89,0,.59,0,.88,0,.59,0,.89,0,.59,0,.88,0,.59,0,.89,0,.59,0,.88,0,.59,0,.89,0,.59,0,.88,0,.59,0,.89,0,.59,0,.88,0,.59,0,.89,0,.59,0,.88,0,.59,0,.89,0,.59,0,.88,0,.59,0,.89,0,.59,0,.88,0,.59,0,.89,0,.59,0,.88,0,.59,0,.89,0,.59,0,.88,0,.59,0,.89,0,.59,0,.88,0,.59,0,.89,0,.59,0,.88,0,.59,0,.89,0,.59,0,.88,0,.59,0,.89,0,.59,0,.88,0,.59,0,.89,0,.59,0,.88,0,.59,0,.89,0,.59,0,.88,0,.59,0,.89,0,.59,0,.88,0,.59,0,.89,0,.59,0,.88,0,.59,0,.89,0,.59,0,.88,0,.59,0,.89,0,.59,0,.88,0,.59,0,.89,0,.59,0,.88,0,.59,0,.89,0,.59,0,.88,0,.59,0,.89,0,.59,0,.88,0,.59,0,.89,0,.59,0,.88,0,.59,0,.89,0,.59,0,.88,0,.59,0,.89,0,.59,0,.88,0,.59,0,.89,0,.59,0,.88,0,.59,0,.89,0,.59,0,.88,0,.59,0,.89,0,.59,0,.88,0,.59,0,.89,0,.59,0,.88,0,.59,0,.89c-.15,10.91,9.14,21.35,22,19.48l.54-.08a19.45,19.45,0,0,0,10.89-5.45L252.24,542a19.45,19.45,0,0,0,5.45-10.89c0-.18.05-.36.08-.54A20,20,0,0,0,258,527c0-.3,0-.59,0-.89s0-.59,0-.88,0-.59,0-.89,0-.59,0-.88,0-.59,0-.89,0-.59,0-.88,0-.59,0-.89,0-.59,0-.88,0-.59,0-.89,0-.59,0-.88,0-.59,0-.89,0-.59,0-.88,0-.59,0-.89,0-.59,0-.88,0-.59,0-.89,0-.59,0-.88,0-.59,0-.89,0-.59,0-.88,0-.59,0-.89,0-.59,0-.88,0-.59,0-.89,0-.59,0-.88,0-.59,0-.89,0-.59,0-.88,0-.59,0-.89,0-.59,0-.88,0-.59,0-.89,0-.59,0-.88,0-.59,0-.89,0-.59,0-.88,0-.59,0-.89,0-.59,0-.88,0-.59,0-.89,0-.59,0-.88,0-.59,0-.89,0-.59,0-.88,0-.59,0-.89,0-.59,0-.88,0-.59,0-.89,0-.59,0-.88,0-.59,0-.89,0-.59,0-.88,0-.59,0-.89,0-.59,0-.88,0-.59,0-.89,0-.59,0-.88,0-.59,0-.89,0-.59,0-.88,0-.59,0-.89,0-.59,0-.88,0-.59,0-.89,0-.59,0-.88,0-.59,0-.89,0-.59,0-.88,0-.59,0-.89,0-.59,0-.88,0-.59,0-.89,0-.59,0-.88,0-.59,0-.89,0-.59,0-.88,0-.59,0-.89,0-.59,0-.88,0-.59,0-.89,0-.59,0-.88,0-.59,0-.89,0-.59,0-.88,0-.59,0-.89,0-.59,0-.88,0-.59,0-.89,0-.59,0-.88,0-.59,0-.89,0-.59,0-.88,0-.59,0-.89,0-.59,0-.88,0-.59,0-.89,0-.59,0-.88,0-.59,0-.89,0-.59,0-.88,0-.59,0-.89,0-.59,0-.88,0-.59,0-.89,0-.59,0-.88,0-.59,0-.89,0-.59,0-.88,0-.59,0-.89,0-.59,0-.88c.17-12.49-11.42-20.89-22.47-19.06a19.05,19.05,0,0,0,1.54-7.89c0-.29,0-.59,0-.88s0-.59,0-.89,0-.59,0-.88,0-.59,0-.89,0-.59,0-.88,0-.59,0-.89,0-.59,0-.88,0-.59,0-.89,0-.59,0-.88,0-.59,0-.89,0-.58,0-.88,0-.59,0-.89,0-.58,0-.88,0-.59,0-.89,0-.58,0-.88,0-.59,0-.89,0-.58,0-.88,0-.59,0-.89,0-.58,0-.88,0-.59,0-.89,0-.58,0-.88,0-.59,0-.89,0-.58,0-.88,0-.59,0-.89,0-.58,0-.88,0-.59,0-.89,0-.58,0-.88,0-.59,0-.89,0-.58,0-.88,0-.59,0-.88,0-.59,0-.89,0-.59,0-.88,0-.59,0-.89,0-.59,0-.88,0-.59,0-.89,0-.59,0-.88,0-.59,0-.89,0-.59,0-.88,0-.59,0-.89,0-.59,0-.88,0-.59,0-.89,0-.59,0-.88,0-.38,0-.57q4.38,3.74,8.54,7.87l.21.21q2.41,2.42,4.68,4.9a149.63,149.63,0,0,1,34.46,63.06,148.55,148.55,0,0,1-14.39,35.38l.5,0-.5.93.5-.05-.5.93.5,0-.5.93.5-.05-.5.93.5,0-.5.93.5,0-.5.93.5,0-.5.93.5-.05-.5.93.5,0-.5.93.5-.05-.5.93.5,0-.5.93.5,0-.5.93.5,0-.5.93.5-.05-.5.93.5,0-.5.93.5-.05-.5.93.5,0-.5.93.5,0-.5.93.5,0c-.17.31-.33.62-.5.92l.5,0-.5.93.5,0c-.17.31-.33.62-.5.92l.5,0-.5.93.5,0c-.17.31-.33.62-.5.92l.5,0-.5.93.5,0c-.17.31-.33.62-.5.92l.5,0-.5.93.5,0c-.17.31-.33.62-.5.92l.5,0-.5.93.5,0c-.17.31-.33.62-.5.92l.5,0-.5.93.5,0c-.17.31-.33.62-.5.92l.5,0-.5.93.5,0c-.17.31-.33.62-.5.92l.5,0-.5.93.5,0c-.17.31-.33.62-.5.92l.5,0-.5.93.5,0c-.17.31-.33.62-.5.92l.5,0-.5.93.5,0c-.17.31-.33.62-.5.92l.5,0-.5.93.5,0c-.17.31-.33.62-.5.92l.5,0-.5.93.5,0c-.17.31-.33.62-.5.92l.5,0-.5.93.5,0c-.17.31-.33.62-.5.92l.5,0-.5.93.5,0c-.17.31-.33.62-.5.92l.5,0-.5.93.5,0c-.17.31-.33.62-.5.92l.5,0-.5.93.5,0c-.17.31-.33.62-.5.92l.5,0-.5.93.5,0c-.17.31-.33.62-.5.92l.5,0-.5.93.5,0c-.17.31-.33.62-.5.92l.5,0-.5.93.5,0c-.17.31-.33.62-.5.92l.5,0-.5.93.5,0c-.17.31-.33.62-.5.92l.5,0-.5.93.5,0c-.17.31-.33.62-.5.92l.5,0-.5.93.5,0c-.17.31-.33.62-.5.92l.5,0-.5.93.5,0c-.17.31-.33.62-.5.92l.5,0-.5.93.5,0c-.17.31-.33.62-.5.92l.5,0-.5.93.5,0c-.17.31-.33.62-.5.92l.5,0-.5.93.5,0c-.17.31-.33.62-.5.92l.5,0-.5.93.5,0c-.17.31-.33.62-.5.92l.5,0-.5.93.5,0c-.17.31-.33.62-.5.92l.5,0-.5.93.5,0c-.17.31-.33.62-.5.92l.5,0-.5.93.5,0c-.17.31-.33.62-.5.92l.5,0-.5.93.5,0c-.17.31-.33.62-.5.92l.5,0-.5.93.5,0c-.17.31-.33.62-.5.92l.5,0-.5.93.5,0c-.17.31-.33.62-.5.92l.5,0-.5.93.5,0c-.17.31-.33.62-.5.92a190.08,190.08,0,0,0,44.64-8.41A189.51,189.51,0,0,0,389,522.47c1.06-1,2.11-2,3.15-3.08,1.81-1.81,3.57-3.65,5.3-5.51A189.3,189.3,0,0,0,447.76,386V362.68A231.77,231.77,0,0,0,564.12,161V84.89ZM464.24,215.63a186.62,186.62,0,0,1-29.15,23.79,183.8,183.8,0,0,1-33.54,17.44,186.12,186.12,0,0,1-101.76,10,185,185,0,0,1,8.12-26.21,182.85,182.85,0,0,1,17.6-33.89A185.43,185.43,0,0,1,513.7,126.46,184.22,184.22,0,0,1,464.24,215.63ZM385.43,391.3q-3.4,5.18-7.29,10.15a154.16,154.16,0,0,1-12.37,14,157.13,157.13,0,0,1-12.29,11.05l-2.08,1.63a150.2,150.2,0,0,1-24.51,15.5c0-.28,0-.56,0-.83s0-.59,0-.89,0-.59,0-.88,0-.59,0-.89,0-.59,0-.88,0-.59,0-.89,0-.59,0-.88,0-.59,0-.89,0-.59,0-.88,0-.59,0-.89,0-.59,0-.88,0-.59,0-.89,0-.59,0-.88,0-.59,0-.89,0-.59,0-.88,0-.59,0-.89,0-.59,0-.88,0-.59,0-.89,0-.59,0-.88,0-.59,0-.89,0-.59,0-.88a189.21,189.21,0,0,0-.88-19.63h0c-.28-2.94-.64-5.85-1.05-8.77h0c-.17-1.18-.36-2.36-.55-3.54a232.59,232.59,0,0,0,64.1-6.66C387.5,388.08,386.48,389.69,385.43,391.3ZM247.85,233.8v36.7a188.44,188.44,0,0,0-21.76-13.42h0a187.87,187.87,0,0,0-29.4-12.36,152.16,152.16,0,0,1,51.17-12.32v1.41ZM135.68,400.72c0-.3,0-.59,0-.88s0-.6,0-.89,0-.59,0-.88,0-.6,0-.89,0-.59,0-.88,0-.6,0-.89,0-.59,0-.88,0-.6,0-.89,0-.59,0-.88,0-.6,0-.89,0-.59,0-.88,0-.6,0-.89,0-.59,0-.88,0-.6,0-.89,0-.59,0-.88,0-.6,0-.89,0-.59,0-.88,0-.6,0-.89,0-.59,0-.88,0-.59,0-.89,0-.59,0-.88,0-.59,0-.89,0-.59,0-.88,0-.59,0-.89,0-.59,0-.88,0-.59,0-.89,0-.59,0-.88,0-.59,0-.89,0-.59,0-.88,0-.59,0-.89,0-.59,0-.88,0-.59,0-.89,0-.59,0-.88,0-.59,0-.89,0-.59,0-.88,0-.59,0-.89,0-.59,0-.88,0-.59,0-.89,0-.59,0-.88,0-.59,0-.89,0-.59,0-.88,0-.59,0-.89,0-.59,0-.88,0-.59,0-.89,0-.59,0-.88,0-.59,0-.89,0-.59,0-.88,0-.59,0-.89,0-.59,0-.88,0-.59,0-.89,0-.59,0-.88,0-.59,0-.89,0-.59,0-.88,0-.59,0-.89,0-.59,0-.88,0-.59,0-.89,0-.59,0-.88v-.1a151.08,151.08,0,0,1,45.56,5.88l-45.56,45.56h0C135.68,401.31,135.69,401,135.68,400.72Z"/><path class="cls-2" d="M397.41,436.89a189.46,189.46,0,0,0,49.14-150.51A232,232,0,0,0,552.39,11.73,231.83,231.83,0,0,0,277.44,118.11a189.51,189.51,0,0,0-151,50.51c-1.39,1.32-2.77,2.65-4.13,4-1.12,1.13-2.23,2.26-3.32,3.41a191,191,0,0,0-18.88,23.22,189.5,189.5,0,0,0-32.8,92.21,148.76,148.76,0,0,1,41.22-15.17,150.9,150.9,0,0,1,90,8.94h0a150.19,150.19,0,0,1,47,31.81l.21.21q2.41,2.42,4.68,4.89A150.37,150.37,0,0,1,270.55,497.6a190.69,190.69,0,0,0,44.64-8.41A189.09,189.09,0,0,0,389,445.47c1.07-1,2.12-2,3.16-3.08q2.72-2.72,5.29-5.5M515.16,49.72a185.48,185.48,0,0,1-80.08,189.7,183.48,183.48,0,0,1-33.54,17.44,186.1,186.1,0,0,1-103.21,9.7,186.13,186.13,0,0,1,9.58-102.94,182.76,182.76,0,0,1,17.6-33.88,185.47,185.47,0,0,1,189.65-80M157.23,236.47a190,190,0,0,0-34.31-.26,150.88,150.88,0,0,1,13.74-21.44c.66-.87,1.33-1.73,2-2.58a154.32,154.32,0,0,1,24.71-24.54h0q5.15-4.07,10.54-7.61a151.84,151.84,0,0,1,86.81-24.92,233.22,233.22,0,0,0-9.15,118.13,188.33,188.33,0,0,0-25.51-16.17h0a187.86,187.86,0,0,0-60-19.5c-3-.44-5.91-.79-8.87-1.09ZM351.4,428.1a150,150,0,0,1-25.61,16.06,189.08,189.08,0,0,0,.21-38.72h0c-.28-2.94-.64-5.85-1.05-8.77h0a188.13,188.13,0,0,0-17.75-56.74h0a187,187,0,0,0-16.79-27.46,233.52,233.52,0,0,0,119.83-9.5,151.93,151.93,0,0,1-24.78,88.36q-3.4,5.18-7.29,10.15a154.24,154.24,0,0,1-24.67,25l-2.07,1.63"/><path class="cls-2" d="M231.52,360.68,56.86,535.34a18.88,18.88,0,0,1-26.56.17c-.31-.3-.62-.6-.92-.91l-.13-.13a18.83,18.83,0,0,1,.15-26.57L204.08,333.22a18.82,18.82,0,0,1,26.56-.15l.14.13.91.92a18.9,18.9,0,0,1-.17,26.56"/><path class="cls-2" d="M130,338.72,33.15,435.53C20.21,448.47-2,437.93.14,419.76l.06-.53a19.08,19.08,0,0,1,5.51-11.16l96.78-96.78a19.11,19.11,0,0,1,11.17-5.51l.53-.06c18.17-2.1,28.7,20.07,15.77,33"/><path class="cls-2" d="M252.24,465l-92.82,92.82a19.43,19.43,0,0,1-10.89,5.44l-.54.09c-18.3,2.66-29.41-19.59-16.33-32.67l93.44-93.44c13.08-13.08,35.33-2,32.67,16.32,0,.19,0,.37-.08.55A19.45,19.45,0,0,1,252.24,465"/></g></g></svg>